<svg width="94" height="29" viewBox="0 0 94 29" fill="none" xmlns="http://www.w3.org/2000/svg">
<g clip-path="url(#clip0)">
<path d="M83.4431 0H82.2406C76.4178 0 71.6836 4.70694 71.6836 10.4962V18.1985C71.6836 23.9878 76.4178 28.6947 82.2406 28.6947H83.4431C89.2659 28.6947 94 23.9878 94 18.1985V10.4962C94 4.70694 89.2532 0 83.4431 0ZM82.2406 6.74578H83.4431C84.3671 6.74578 85.2152 7.08559 85.8735 7.62676L78.4684 17.242V10.4962C78.4684 8.43223 80.1519 6.74578 82.2406 6.74578ZM83.4431 21.949H82.2406C81.3165 21.949 80.4684 21.6091 79.8102 21.068L87.2152 11.4527V18.2111C87.2026 20.2625 85.519 21.949 83.4431 21.949Z" fill="black"/>
<path d="M59.7595 28.2417L4.93671 28.204C2.21519 28.204 0 26.0015 0 23.2956V5.36143C0 2.65557 2.21519 0.453125 4.93671 0.453125L59.7595 0.490881C62.481 0.490881 64.6962 2.69333 64.6962 5.39919V23.3334C64.6962 26.0393 62.481 28.2417 59.7595 28.2417ZM4.93671 2.52972C3.36709 2.52972 2.08861 3.80084 2.08861 5.36143V23.2956C2.08861 24.8562 3.36709 26.1274 4.93671 26.1274L59.7595 26.1651C61.3291 26.1651 62.6076 24.894 62.6076 23.3334V5.39919C62.6076 3.8386 61.3291 2.56747 59.7595 2.56747L4.93671 2.52972Z" fill="black"/>
<path d="M20.8729 14.1837C21.9236 13.2902 22.5818 11.9939 22.5818 10.5466C22.5818 7.86587 20.316 5.6886 17.5185 5.6886H10.3033H9.79698C9.41723 5.6886 9.10077 6.00323 9.10077 6.3808V8.83495C9.10077 9.21251 9.41723 9.52715 9.79698 9.52715H10.1387C10.2274 9.52715 10.3033 9.60266 10.3033 9.69076V12.4847C10.3033 12.7616 9.94887 13.2273 9.25267 13.8943L9.24001 13.9069C9.03748 14.1208 9.05014 14.448 9.26533 14.6368C9.96153 15.2913 10.3033 15.7569 10.3033 16.0464V18.9159C10.3033 19.0543 10.1894 19.155 10.0628 19.155H9.80963C9.42989 19.155 9.11343 19.4696 9.11343 19.8472V22.3265C9.11343 22.7041 9.42989 23.0187 9.80963 23.0187H18.2147C20.9489 23.0187 23.2906 20.9169 23.3793 18.1985C23.4299 16.2855 22.4172 14.8885 20.8729 14.1837ZM14.1261 9.51456C14.1261 9.41388 14.202 9.33837 14.3033 9.33837H17.5818C18.2653 9.33837 18.8223 10.0557 18.8223 10.8109C18.8223 11.5786 18.2653 12.2834 17.5818 12.2834H14.3033C14.202 12.2834 14.1261 12.2078 14.1261 12.1072V9.51456ZM18.3286 19.3689H14.3033C14.202 19.3689 14.1261 19.2934 14.1261 19.1927V16.5876C14.1261 16.4869 14.202 16.4114 14.3033 16.4114H18.3286C18.9868 16.4114 19.5312 17.1287 19.5312 17.8839C19.5312 18.6516 18.9868 19.3689 18.3286 19.3689Z" fill="black"/>
<path d="M39.7594 13.8943L39.772 13.9069C39.9746 14.1208 39.9619 14.448 39.7467 14.6368C39.0505 15.2913 38.7087 15.7569 38.7087 16.0464V16.5624C38.7087 20.187 35.848 23.3082 32.2024 23.3711C28.4809 23.434 25.4429 20.4639 25.4429 16.7763V16.0464C25.4429 15.7569 25.1011 15.2913 24.4049 14.6368C24.1897 14.4355 24.1898 14.1082 24.3796 13.9069C24.3796 13.8943 24.3923 13.8943 24.3923 13.8943C25.0885 13.2273 25.4429 12.7616 25.4429 12.4847V9.71593C25.4429 9.61525 25.367 9.53974 25.2657 9.53974H24.9366C24.5568 9.53974 24.2404 9.2251 24.2404 8.84754V6.3808C24.2404 6.00323 24.5568 5.6886 24.9366 5.6886H28.9492C29.329 5.6886 29.6454 6.00323 29.6454 6.3808V16.6883C29.6454 17.9594 30.5822 19.0921 31.848 19.2053C33.3037 19.3438 34.5315 18.2111 34.5315 16.7889V6.3808C34.5315 6.00323 34.848 5.6886 35.2277 5.6886H39.2277C39.6075 5.6886 39.9239 6.00323 39.9239 6.3808V8.83495C39.9239 9.21251 39.6075 9.52715 39.2277 9.52715H38.8986C38.7973 9.52715 38.7214 9.60266 38.7214 9.70335V12.4847C38.7214 12.7616 39.0632 13.2398 39.7594 13.8943Z" fill="black"/>
<path d="M55.6326 8.82237V6.54441C55.6326 6.31787 55.544 6.10392 55.3795 5.94031C55.2149 5.7767 54.9997 5.6886 54.7719 5.6886H51.6959C51.4681 5.6886 51.2402 5.7767 51.0883 5.94031C50.9238 6.10392 50.8352 6.31787 50.8352 6.54441C50.8352 6.54441 50.8352 8.72168 50.8478 8.74685L48.6959 11.6163C48.6706 11.6415 48.6453 11.6541 48.6073 11.6541C48.5693 11.6541 48.544 11.6415 48.5187 11.6163L46.3668 8.77202V6.54441C46.3668 6.31787 46.2782 6.10392 46.1136 5.94031C45.9491 5.7767 45.7339 5.6886 45.506 5.6886H42.4301C42.2022 5.6886 41.9871 5.7767 41.8225 5.94031C41.6579 6.10392 41.5693 6.31787 41.5693 6.54441V8.82237C41.5693 9.21251 41.6326 9.46422 41.7845 9.66559L45.2276 14.3599L41.7845 19.0543C41.6073 19.2934 41.5693 19.5703 41.5693 19.8975V22.1755C41.5693 22.402 41.6579 22.616 41.8225 22.7796C41.9871 22.9432 42.2022 23.0313 42.4301 23.0313H45.506C45.7339 23.0313 45.9491 22.9432 46.1136 22.7796C46.2782 22.616 46.3668 22.402 46.3668 22.1755L46.3542 19.9101L48.506 17.091C48.5314 17.0658 48.5567 17.0532 48.5947 17.0532C48.6326 17.0532 48.6579 17.0658 48.6833 17.091L50.8352 19.8849C50.8352 19.9479 50.8352 22.1755 50.8352 22.1755C50.8352 22.402 50.9238 22.616 51.0883 22.7796C51.2529 22.9432 51.4681 23.0313 51.6959 23.0313H54.7719C54.9997 23.0313 55.2149 22.9432 55.3795 22.7796C55.544 22.616 55.6326 22.402 55.6326 22.1755V19.8975C55.6326 19.5703 55.5947 19.2934 55.4174 19.0543L51.9744 14.3599L55.4174 9.66559C55.5693 9.46422 55.6326 9.2251 55.6326 8.82237Z" fill="black"/>
</g>
<defs>
<clipPath id="clip0">
<rect width="94" height="28.6947" fill="white"/>
</clipPath>
</defs>
</svg>
