<svg width="160" height="160" viewBox="0 0 160 160" fill="none" xmlns="http://www.w3.org/2000/svg">
<g clip-path="url(#clip0)">
<g clip-path="url(#clip1)">
<path d="M94.7337 89.5337L118.134 125.2C119 126.534 120.4 127.334 121.534 127.267C122.2 127.2 122.667 126.867 122.934 126.4C123.134 126 123.2 125.467 123.067 124.8L120.267 107.4L94.2003 86.4004C93.867 87.2004 94.067 88.4004 94.7337 89.5337Z" fill="#37174D"/>
<path d="M122.534 126.134C122.667 125.867 122.734 125.467 122.667 125.067C122.667 125 122.667 124.934 122.6 124.867L119.867 107.667L119.667 106.267" stroke="#0059B3" stroke-miterlimit="10" stroke-linecap="round" stroke-linejoin="round"/>
<path d="M142.733 89.1336L98.1999 84.5336C96.7999 84.4003 95.1999 84.7336 94.2666 86.4003L120.333 107.4L142.133 96.8003C142.933 96.4669 143.6 95.9336 144.133 95.2669C144.8 94.4669 145.2 93.4669 145.267 92.4669C145.4 90.6669 144.4 89.2669 142.733 89.1336Z" fill="#0059B3"/>
<path d="M96.333 86.2003C96.733 86.0003 97.2663 85.867 97.9997 85.9337L142.533 90.5337C143.4 90.6003 143.666 91.267 143.733 91.8003C143.733 91.9336 143.733 92.1336 143.733 92.3336" stroke="#00BF9F" stroke-miterlimit="10" stroke-linecap="round" stroke-linejoin="round"/>
<path d="M137.267 92.067L115.067 102.867L118.134 121.934" stroke="#0059B3" stroke-miterlimit="10" stroke-linecap="round" stroke-linejoin="round"/>
<path d="M110.2 99.2002L112.467 113.334" stroke="#0059B3" stroke-miterlimit="10" stroke-linecap="round" stroke-linejoin="round"/>
<path d="M139 91.2669L115.467 102.667" stroke="#37174D" stroke-miterlimit="10" stroke-linecap="round" stroke-linejoin="round"/>
<path d="M128.667 90.2669L110.867 98.9336" stroke="#37174D" stroke-miterlimit="10" stroke-linecap="round" stroke-linejoin="round"/>
<path d="M57.4678 12.6668L57.6678 12.6002C57.6011 12.6668 57.5344 12.6668 57.4678 12.6668Z" fill="#8C0046"/>
<path d="M57.667 12.6001L57.467 12.6668L23.667 23.2668C25.067 22.8001 26.7337 23.2668 28.3337 24.8668L54.067 16.8001L62.2003 14.2668C60.6003 12.7334 59.067 12.2668 57.667 12.6001Z" fill="#0059B3" stroke="#0059B3" stroke-miterlimit="10" stroke-linecap="round" stroke-linejoin="round"/>
<path d="M23.6676 23.267C21.6009 23.9336 19.9343 26.667 19.3343 31.0003C18.4009 38.267 20.9343 47.3336 24.9343 51.267L35.8676 47.867L36.8676 45.467L41.2009 44.2003L43.9343 45.4003L58.8009 40.7336C54.8009 36.867 52.3343 27.8003 53.2676 20.467C53.4676 19.067 53.7343 17.867 54.1343 16.867C54.9343 14.667 56.1343 13.267 57.5343 12.7336L23.6676 23.267Z" fill="#00BF9F" stroke="#00BF9F" stroke-miterlimit="10" stroke-linecap="round" stroke-linejoin="round"/>
<path d="M25.1338 50.3334C21.4671 46.4668 19.2671 38.0001 20.1338 31.1334C20.6005 27.7334 21.7338 25.2668 23.3338 24.3334C23.5338 24.2001 23.7338 24.1334 23.9338 24.0668L54.2671 14.5334" stroke="#D5F2D5" stroke-miterlimit="10" stroke-linecap="round" stroke-linejoin="round"/>
<path d="M24.9336 51.267L35.8669 47.867L36.8669 45.467L41.2003 44.2003L43.9336 45.4003L58.8003 40.7336C54.8003 36.867 52.3336 27.8003 53.2669 20.467C53.4669 19.067 53.7336 17.867 54.1336 16.867C54.9336 14.667 56.1336 13.267 57.5336 12.7336" stroke="#0059B3" stroke-miterlimit="10" stroke-linecap="round" stroke-linejoin="round"/>
<path d="M47.9337 15.6669C46.5337 16.1336 45.3337 17.6003 44.5337 19.8003C44.1337 20.8669 43.867 22.0669 43.667 23.4003C42.7337 30.6669 45.2003 39.7336 49.2003 43.6669" stroke="#0059B3" stroke-miterlimit="10" stroke-linecap="round" stroke-linejoin="round"/>
<path d="M39.2009 44.7336C36.0009 40.3336 34.2009 32.5336 35.0676 26.1336C35.2676 24.7336 35.5343 23.5336 35.9343 22.5336C36.7343 20.3336 37.9343 18.9336 39.3343 18.4003" stroke="#0059B3" stroke-miterlimit="10" stroke-linecap="round" stroke-linejoin="round"/>
<path d="M58.2012 13.267C58.2012 13.267 59.5345 13.1337 60.6678 13.9337" stroke="#00BF9F" stroke-miterlimit="10" stroke-linecap="round" stroke-linejoin="round"/>
<path d="M21.868 46.7335L55.7346 36.1335C54.7346 34.0002 53.9346 31.5335 53.468 28.9335L19.668 39.5335C20.068 42.1335 20.868 44.6002 21.868 46.7335Z" fill="#0059B3" stroke="#0059B3" stroke-miterlimit="10" stroke-linecap="round" stroke-linejoin="round"/>
<path d="M44.001 31.9335C44.4676 34.5335 45.201 37.0002 46.2676 39.1335" stroke="#00BF9F" stroke-miterlimit="10" stroke-linecap="round" stroke-linejoin="round"/>
<path d="M37.533 41.8669C36.533 39.7335 35.733 37.2002 35.333 34.6669" stroke="#00BF9F" stroke-miterlimit="10" stroke-linecap="round" stroke-linejoin="round"/>
<path d="M22.6678 46.5336C21.6678 44.4002 20.8678 41.8669 20.4678 39.3336" stroke="#00BF9F" stroke-miterlimit="10" stroke-linecap="round" stroke-linejoin="round"/>
<path d="M72.7347 19.8002L67.068 20.8668C48.3347 24.4668 36.3347 43.4668 40.1347 63.3335L46.0014 93.3335C49.8014 113.2 68.1347 126.334 86.8014 122.734L92.468 121.667C111.201 118.067 123.201 99.0669 119.401 79.2002L113.601 49.2668C109.735 29.3335 91.468 16.2002 72.7347 19.8002ZM71.068 41.2668L76.7347 40.2002C79.7347 39.6002 82.668 40.0668 85.3347 41.2002L64.5347 86.1335L59.4014 59.6668C57.7347 51.0668 62.9347 42.8002 71.068 41.2668ZM88.468 101.267L82.8014 102.334C79.8014 102.934 76.868 102.467 74.2014 101.334L95.0014 56.4002L100.135 82.8669C101.801 91.4669 96.6014 99.7335 88.468 101.267Z" fill="#00BF9F" stroke="#0059B3" stroke-miterlimit="10" stroke-linecap="round" stroke-linejoin="round"/>
<path d="M62.3344 56.5338C60.6677 47.9338 65.8677 39.6671 74.001 38.0671L79.6677 37.0004C82.6677 36.4004 85.601 36.8671 88.2677 38.0004L76.601 63.0671L91.4677 67.2671L97.9344 53.2671L101.201 70.0004L122.268 76.0004L116.468 46.0671C112.668 26.2004 94.401 13.0004 75.6677 16.6004L70.001 17.6671C53.5344 20.9337 42.201 36.1337 42.401 53.3338L62.801 59.1337L62.3344 56.5338Z" fill="#D5F2D5" stroke="#00BF9F" stroke-miterlimit="10" stroke-linecap="round" stroke-linejoin="round"/>
<path d="M44.334 51.9334C44.734 35.9334 55.534 22.4667 70.4006 19.6001L76.0673 18.5334C78.0006 18.1334 79.934 18.0001 81.934 18.0001C97.734 18.0001 111.467 30.0001 114.667 46.4667L119.867 73.4001" stroke="white" stroke-miterlimit="10" stroke-linecap="round" stroke-linejoin="round"/>
<path d="M122.268 76.0001L101.201 70.0001L103.068 79.6668C104.735 88.2668 99.468 96.5335 91.4014 98.0668L85.7347 99.1334C82.7347 99.7334 79.8014 99.2668 77.1347 98.1334L91.468 67.2001L76.6014 63.0001L67.4014 82.9334L62.8014 59.1334L42.4014 53.3334C42.4014 55.6001 42.668 57.8668 43.068 60.2001L48.868 90.1334C52.668 110 71.0014 123.133 89.668 119.533L95.3347 118.467C114.068 114.867 126.135 95.8668 122.268 76.0001Z" fill="#D5F2D5" stroke="#00BF9F" stroke-miterlimit="10" stroke-linecap="round" stroke-linejoin="round"/>
<path d="M44.4688 55.8669L61.2021 60.6003L66.6687 89.0669L77.6687 65.3336L88.8687 68.4669" stroke="white" stroke-miterlimit="10" stroke-linecap="round" stroke-linejoin="round"/>
<path d="M103.668 72.6667L120.601 77.4667" stroke="white" stroke-miterlimit="10" stroke-linecap="round" stroke-linejoin="round"/>
<path d="M76.4014 99.9334C78.5347 100.867 80.8014 101.4 83.068 101.4C84.068 101.4 85.1347 101.333 86.1347 101.133L91.8014 100.067C96.2014 99.2001 100.068 96.6001 102.535 92.6667" stroke="white" stroke-miterlimit="10" stroke-linecap="round" stroke-linejoin="round"/>
<path d="M42.4002 53.3336L40.2002 63.4002" stroke="#0059B3" stroke-miterlimit="10" stroke-linecap="round" stroke-linejoin="round"/>
<path d="M85.2666 41.2002L88.1999 38.0002" stroke="#0059B3" stroke-miterlimit="10" stroke-linecap="round" stroke-linejoin="round"/>
<path d="M23.3335 123.8L31.0668 90.4002C31.2001 89.9335 31.6001 89.6669 32.0668 89.8002L63.3335 98.2669C63.8001 98.4002 64.0668 98.8669 63.9335 99.3335L56.2001 132.734C56.1335 132.934 56.0001 133.134 55.8001 133.267C55.6001 133.4 55.4001 133.4 55.2001 133.334L23.9335 124.867C23.5335 124.734 23.2668 124.267 23.3335 123.8Z" fill="#FFB366"/>
<path d="M31.8668 94.7336L25.4668 122.334" stroke="#D5F2D5" stroke-miterlimit="10" stroke-linecap="round" stroke-linejoin="round"/>
<path d="M61.0669 99.4669L39.9336 93.6669" stroke="#D5F2D5" stroke-miterlimit="10" stroke-linecap="round" stroke-linejoin="round"/>
<path d="M31.8672 90.4003L55.6005 132.734L54.5339 109.267L31.8672 90.4003Z" fill="#FF3D65" stroke="#FF3D65" stroke-miterlimit="10" stroke-linecap="round" stroke-linejoin="round"/>
<path d="M24.001 124.133L45.6676 114.933L49.9343 122.533L24.001 124.133Z" fill="#FF3D65" stroke="#FF3D65" stroke-miterlimit="10" stroke-linecap="round" stroke-linejoin="round"/>
<path d="M54.5337 109.267L49.9337 122.534L45.667 114.934L54.5337 109.267Z" fill="#8C0046" stroke="#8C0046" stroke-miterlimit="10" stroke-linecap="round" stroke-linejoin="round"/>
<path d="M54.8665 119.334L63.3332 99.067L54.5332 109.267L54.8665 119.334Z" fill="#FF3D65" stroke="#FF3D65" stroke-miterlimit="10" stroke-linecap="round" stroke-linejoin="round"/>
<path d="M63.3337 99.067L54.5337 109.267L51.4004 106.667L63.3337 99.067Z" fill="#D5F2D5" stroke="#D5F2D5" stroke-miterlimit="10" stroke-linecap="round" stroke-linejoin="round"/>
<path d="M43.7343 111.534L24.001 124.134L54.5343 109.267L43.7343 111.534Z" fill="#D5F2D5" stroke="#D5F2D5" stroke-miterlimit="10" stroke-linecap="round" stroke-linejoin="round"/>
<path d="M31.8672 90.4003L53.6005 108.534L43.2672 110.667L31.8672 90.4003Z" fill="#FF3D65" stroke="#FF3D65" stroke-miterlimit="10" stroke-linecap="round" stroke-linejoin="round"/>
<path d="M24.001 124.134L54.5343 109.267L63.3343 99.067" stroke="#FFB366" stroke-miterlimit="10" stroke-linecap="round" stroke-linejoin="round"/>
<path d="M62.7342 101.934L55.2675 110.2L25.5342 124.734" stroke="#FF3D65" stroke-miterlimit="10" stroke-linecap="round" stroke-linejoin="round"/>
<path d="M55.6002 132.733L54.6002 111.8L46.2002 116" stroke="#8C0046" stroke-miterlimit="10" stroke-linecap="round" stroke-linejoin="round"/>
<path d="M117.668 55.7334C106.868 49.0667 99.7343 41.1334 101.668 37.9334C103.601 34.8 113.934 37.6 124.734 44.2667C135.534 50.9334 142.668 58.8667 140.734 62.0667C138.801 65.2001 128.468 62.4 117.668 55.7334Z" fill="#8C0046" stroke="#FF3D65" stroke-miterlimit="10" stroke-linecap="round" stroke-linejoin="round"/>
<path d="M142.868 57.4667C140.935 60.5333 130.868 57.8 120.401 51.2667C109.935 44.7334 102.868 37 104.801 33.9333" stroke="#FF3D65" stroke-miterlimit="10" stroke-linecap="round" stroke-linejoin="round"/>
<path d="M107.335 47.6665C109.402 44.3332 111.668 41.3332 114.002 38.7999L107.335 47.6665Z" fill="#37174D"/>
<path d="M107.335 47.6665C109.402 44.3332 111.668 41.3332 114.002 38.7999" stroke="#FF3D65" stroke-miterlimit="10" stroke-linecap="round" stroke-linejoin="round"/>
<path d="M124.735 44.2666C113.935 37.6 103.601 34.8 101.668 37.9333C108.335 27.1333 122.468 23.8 133.268 30.4666C144.068 37.1333 147.401 51.2666 140.735 62.0666C142.668 58.8666 135.535 50.9333 124.735 44.2666Z" fill="#FF3D65" stroke="#FF3D65" stroke-miterlimit="10" stroke-linecap="round" stroke-linejoin="round"/>
<path d="M138.334 39.3998C138.734 43.3998 137.667 48.0665 135.067 52.2665" stroke="#8C0046" stroke-miterlimit="10" stroke-linecap="round" stroke-linejoin="round"/>
<path d="M116.201 34.5333C119.601 35.7999 123.401 37.7333 127.335 40.1333C136.868 46.0666 143.535 52.9999 143.268 56.5333" stroke="#8C0046" stroke-miterlimit="10" stroke-linecap="round" stroke-linejoin="round"/>
<path d="M133.001 30.8665C137.668 33.7332 140.935 38.1332 142.535 42.9998C142.601 43.1332 142.535 43.3332 142.468 43.3998C142.268 43.7332 141.735 43.7332 141.601 43.3332C140.068 39.9998 137.601 37.0665 134.201 34.9998C126.668 30.3332 117.201 31.5332 111.001 37.2665C107.935 36.3332 105.201 35.9332 103.401 36.3332C110.268 27.2665 123.135 24.7998 133.001 30.8665Z" fill="#FFB366"/>
<path d="M106.734 32.7999C108.668 32.4666 111.668 32.9333 115.334 34.2666" stroke="#FF3D65" stroke-miterlimit="10" stroke-linecap="round" stroke-linejoin="round"/>
<path d="M138.201 38.3334C137.868 36.4667 137.201 34.7334 136.201 33.3334" stroke="#FF3D65" stroke-miterlimit="10" stroke-linecap="round" stroke-linejoin="round"/>
<path d="M83.6004 147.8C112.43 147.8 135.8 146.069 135.8 143.934C135.8 141.798 112.43 140.067 83.6004 140.067C54.7711 140.067 31.4004 141.798 31.4004 143.934C31.4004 146.069 54.7711 147.8 83.6004 147.8Z" fill="url(#paint0_radial)"/>
</g>
</g>
<defs>
<radialGradient id="paint0_radial" cx="0" cy="0" r="1" gradientUnits="userSpaceOnUse" gradientTransform="translate(83.5736 143.921) scale(52.0737)">
<stop stop-color="#0053A6" stop-opacity="0.5"/>
<stop offset="0.208" stop-color="#0064A5" stop-opacity="0.396"/>
<stop offset="0.6185" stop-color="#0090A2" stop-opacity="0.1908"/>
<stop offset="1" stop-color="#00BF9F" stop-opacity="0"/>
</radialGradient>
<clipPath id="clip0">
<rect width="160" height="160" fill="white"/>
</clipPath>
<clipPath id="clip1">
<rect width="126.6" height="135.733" fill="white" transform="translate(18.667 12)"/>
</clipPath>
</defs>
</svg>
